<?xml version="1.0" encoding="UTF-8"?>
<!DOCTYPE svg PUBLIC "-//W3C//DTD SVG 1.1//EN" "http://www.w3.org/Graphics/SVG/1.1/DTD/svg11.dtd">
<svg xmlns="http://www.w3.org/2000/svg" version="1.1" width="512px" height="512px" style="shape-rendering:geometricPrecision; text-rendering:geometricPrecision; image-rendering:optimizeQuality; fill-rule:evenodd; clip-rule:evenodd" xmlns:xlink="http://www.w3.org/1999/xlink">
<g><path style="opacity:0.978" fill="#0d0d0d" d="M 240.5,27.5 C 331.403,25.3608 401.57,62.0275 451,137.5C 489.374,205.706 493.708,276.039 464,348.5C 430.674,417.814 376.507,461.314 301.5,479C 216.98,493.492 145.147,469.992 86,408.5C 28.5253,340.02 13.5253,263.02 41,177.5C 69.5627,104.604 121.396,57.1039 196.5,35C 211.143,31.5044 225.81,29.0044 240.5,27.5 Z M 391.5,104.5 C 318.098,74.2189 247.764,80.0522 180.5,122C 105.968,176.865 75.4678,250.365 89,342.5C 92.2692,359.472 97.4358,375.806 104.5,391.5C 55.6916,334.914 40.8583,270.247 60,197.5C 83.7283,125.714 131.895,79.2135 204.5,58C 262.707,44.0435 317.04,53.0435 367.5,85C 375.979,90.9854 383.979,97.4854 391.5,104.5 Z M 249.5,128.5 C 281.936,128.129 304.436,142.796 317,172.5C 325.9,206.14 315.734,232.307 286.5,251C 251.305,266.161 222.472,258.328 200,227.5C 184.008,196.289 188.508,168.456 213.5,144C 224.259,135.783 236.259,130.616 249.5,128.5 Z M 214.5,329.5 C 241.835,329.333 269.169,329.5 296.5,330C 321.261,334.118 340.427,346.618 354,367.5C 361.857,384.38 369.023,401.546 375.5,419C 325.617,455.544 270.284,467.211 209.5,454C 182.169,447.665 157.502,435.998 135.5,419C 141.977,401.546 149.143,384.38 157,367.5C 170.788,346.69 189.954,334.023 214.5,329.5 Z"/></g>
<g><path style="opacity:0.996" fill="#42d584" d="M 391.5,104.5 C 420.887,129.537 441.054,160.87 452,198.5C 470.553,270.607 455.886,334.941 408,391.5C 403.985,395.682 399.818,399.682 395.5,403.5C 388.727,385.68 380.894,368.347 372,351.5C 352.899,324.359 326.733,309.193 293.5,306C 266.833,305.333 240.167,305.333 213.5,306C 173.77,312.402 145.603,333.902 129,370.5C 124.791,381.63 120.291,392.63 115.5,403.5C 111.074,400.079 107.407,396.079 104.5,391.5C 97.4358,375.806 92.2692,359.472 89,342.5C 75.4678,250.365 105.968,176.865 180.5,122C 247.764,80.0522 318.098,74.2189 391.5,104.5 Z M 249.5,128.5 C 236.259,130.616 224.259,135.783 213.5,144C 188.508,168.456 184.008,196.289 200,227.5C 222.472,258.328 251.305,266.161 286.5,251C 315.734,232.307 325.9,206.14 317,172.5C 304.436,142.796 281.936,128.129 249.5,128.5 Z"/></g>
<g><path style="opacity:0.989" fill="#0d0e0d" d="M 240.5,105.5 C 294.188,102.068 328.354,126.068 343,177.5C 347.842,215.303 335.009,245.469 304.5,268C 260.795,292.109 221.628,286.276 187,250.5C 160.074,213.353 159.741,176.02 186,138.5C 200.549,121.477 218.716,110.477 240.5,105.5 Z M 249.5,128.5 C 236.259,130.616 224.259,135.783 213.5,144C 188.508,168.456 184.008,196.289 200,227.5C 222.472,258.328 251.305,266.161 286.5,251C 315.734,232.307 325.9,206.14 317,172.5C 304.436,142.796 281.936,128.129 249.5,128.5 Z"/></g>
</svg>
