<?xml version="1.0" encoding="UTF-8"?>
<!DOCTYPE svg PUBLIC "-//W3C//DTD SVG 1.1//EN" "http://www.w3.org/Graphics/SVG/1.1/DTD/svg11.dtd">
<svg xmlns="http://www.w3.org/2000/svg" version="1.1" width="371px" height="365px" style="shape-rendering:geometricPrecision; text-rendering:geometricPrecision; image-rendering:optimizeQuality; fill-rule:evenodd; clip-rule:evenodd" xmlns:xlink="http://www.w3.org/1999/xlink">
<g><path style="opacity:0.999" fill="#fbfcfc" d="M 287.5,75.5 C 283.731,79.7712 279.731,83.9379 275.5,88C 273.593,89.122 271.593,89.9553 269.5,90.5C 260.343,91.5108 256.51,87.5108 258,78.5C 260.365,75.1309 263.532,72.9643 267.5,72C 269.452,69.9261 271.285,67.7594 273,65.5C 274.199,55.6443 270.033,52.4776 260.5,56C 258.714,56.7845 257.214,57.9512 256,59.5C 254.647,67.2624 250.147,70.0957 242.5,68C 239.372,66.2115 238.039,63.5448 238.5,60C 238.736,55.4589 240.07,51.2922 242.5,47.5C 252.517,35.1144 264.851,32.281 279.5,39C 290.031,44.8973 293.864,53.7307 291,65.5C 290.105,68.951 288.938,72.2843 287.5,75.5 Z"/></g>
<g><path style="opacity:1" fill="#07131e" d="M 310.5,102.5 C 309.659,101.991 309.159,102.657 309,104.5C 308.275,102.842 307.108,102.342 305.5,103C 304.91,104.509 304.244,106.009 303.5,107.5C 302.235,104.978 301.068,101.978 300,98.5C 299.177,105.134 298.677,105.134 298.5,98.5C 296.533,98.2606 294.699,98.5939 293,99.5C 292.833,97.3333 292.667,95.1667 292.5,93C 292.581,90.3746 293.248,88.0413 294.5,86C 293.833,85.6667 293.167,85.3333 292.5,85C 294.192,83.5993 294.859,81.7659 294.5,79.5C 292.123,79.7845 289.956,79.7845 288,79.5C 287.333,80.1667 286.667,80.8333 286,81.5C 286.595,79.6498 287.095,77.6498 287.5,75.5C 288.938,72.2843 290.105,68.951 291,65.5C 293.864,53.7307 290.031,44.8973 279.5,39C 264.851,32.281 252.517,35.1144 242.5,47.5C 240.584,47.908 238.751,47.2413 237,45.5C 234.811,46.6486 232.811,47.3153 231,47.5C 230.626,46.5838 230.126,45.7504 229.5,45C 230.122,42.0686 230.289,38.902 230,35.5C 228.588,33.9354 227.421,32.2687 226.5,30.5C 228.621,27.55 231.287,25.05 234.5,23C 255.901,11.1461 276.901,11.8128 297.5,25C 312.181,37.9796 318.681,54.813 317,75.5C 315.71,84.8366 313.544,93.8366 310.5,102.5 Z"/></g>
<g><path style="opacity:1" fill="#08151f" d="M 165.5,40.5 C 167.527,40.3379 169.527,40.5045 171.5,41C 167.75,41.2599 164.084,41.9266 160.5,43C 164.5,43.6667 164.5,44.3333 160.5,45C 161.766,45.3095 162.933,45.8095 164,46.5C 172.745,45.3269 181.912,45.3269 191.5,46.5C 191.906,45.4425 191.906,44.1092 191.5,42.5C 192.873,42.3433 194.207,42.51 195.5,43C 195.833,44 196.167,45 196.5,46C 199.42,45.2366 201.753,45.9033 203.5,48C 207.833,48.3333 212.167,48.6667 216.5,49C 215.333,49.5 214.5,50.3333 214,51.5C 213.374,49.0087 212.541,49.0087 211.5,51.5C 210.459,49.0087 209.626,49.0087 209,51.5C 207.599,49.8078 205.766,49.1412 203.5,49.5C 203.5,51.1667 203.5,52.8333 203.5,54.5C 205.288,54.2148 206.955,54.5481 208.5,55.5C 208.333,55.8333 208.167,56.1667 208,56.5C 207,56.1667 206,55.8333 205,55.5C 202.503,57.154 200.003,57.9874 197.5,58C 198.667,58.5 199.5,59.3333 200,60.5C 200.451,58.0712 201.285,57.9045 202.5,60C 201.421,60.956 200.255,61.7894 199,62.5C 196.281,61.5562 193.448,61.2229 190.5,61.5C 182.493,61.3336 174.493,61.5003 166.5,62C 163.203,62.2037 160.203,63.037 157.5,64.5C 152.582,65.2269 147.915,66.5603 143.5,68.5C 138.738,69.7164 134.405,71.7164 130.5,74.5C 94.8059,93.5465 74.8059,123.213 70.5,163.5C 70.2596,171.875 70.5929,180.208 71.5,188.5C 72.144,197.11 74.4773,205.11 78.5,212.5C 78.5,213.167 78.5,213.833 78.5,214.5C 76.8211,214.892 75.1545,215.392 73.5,216C 73.8333,216.333 74.1667,216.667 74.5,217C 73.5,217.667 72.5,217.667 71.5,217C 71.0574,215.482 71.7241,214.315 73.5,213.5C 72.8333,213.167 72.1667,212.833 71.5,212.5C 72.5202,210.568 72.6869,208.568 72,206.5C 71.6121,207.428 70.9454,208.095 70,208.5C 66.9532,207.249 63.9532,207.249 61,208.5C 60.6886,207.258 61.1886,206.258 62.5,205.5C 61.1189,203.365 60.1189,201.032 59.5,198.5C 59.2537,200.22 59.2537,202.22 59.5,204.5C 58.1667,204.5 56.8333,204.5 55.5,204.5C 55.6567,203.127 55.49,201.793 55,200.5C 54.6667,200.833 54.3333,201.167 54,201.5C 52.4529,197.233 50.9529,196.9 49.5,200.5C 39.5238,140.284 59.8571,93.1175 110.5,59C 126.679,48.9405 144.179,42.4405 163,39.5C 163.671,40.2524 164.504,40.5858 165.5,40.5 Z"/></g>
<g><path style="opacity:1" fill="#08141e" d="M 226.5,30.5 C 227.421,32.2687 228.588,33.9354 230,35.5C 230.289,38.902 230.122,42.0686 229.5,45C 230.126,45.7504 230.626,46.5838 231,47.5C 232.811,47.3153 234.811,46.6486 237,45.5C 238.751,47.2413 240.584,47.908 242.5,47.5C 240.07,51.2922 238.736,55.4589 238.5,60C 238.039,63.5448 239.372,66.2115 242.5,68C 250.147,70.0957 254.647,67.2624 256,59.5C 257.214,57.9512 258.714,56.7845 260.5,56C 270.033,52.4776 274.199,55.6443 273,65.5C 271.285,67.7594 269.452,69.9261 267.5,72C 263.532,72.9643 260.365,75.1309 258,78.5C 256.51,87.5108 260.343,91.5108 269.5,90.5C 266.972,91.1657 264.306,91.8324 261.5,92.5C 261.942,93.7387 262.609,94.7387 263.5,95.5C 255.584,102.465 255.584,109.632 263.5,117C 265.81,117.497 268.143,117.663 270.5,117.5C 269.411,119.117 267.744,119.95 265.5,120C 260.833,120.667 256.167,120.667 251.5,120C 252.167,119.667 252.833,119.333 253.5,119C 252.151,118.228 251.318,117.061 251,115.5C 250.798,117.256 250.298,118.922 249.5,120.5C 248.696,118.982 248.696,117.148 249.5,115C 248.579,113.244 247.412,113.077 246,114.5C 244.5,114 243,113.5 241.5,113C 242.833,112.333 242.833,111.667 241.5,111C 242.833,110.333 244.167,109.667 245.5,109C 245.619,107.719 245.119,106.552 244,105.5C 242.927,106.28 241.76,106.113 240.5,105C 242.795,104.016 242.461,103.183 239.5,102.5C 238.169,103.592 237.336,104.926 237,106.5C 234.232,105.792 233.399,104.292 234.5,102C 234,101.5 233.5,101 233,100.5C 232,101.833 231,101.833 230,100.5C 228.955,101.373 228.122,102.373 227.5,103.5C 226.167,102.5 224.833,101.5 223.5,100.5C 216.412,90.3127 212.746,78.9793 212.5,66.5C 210.035,66.233 207.701,65.5664 205.5,64.5C 202.873,63.9084 200.206,63.5751 197.5,63.5C 195.393,62.5318 193.059,62.1984 190.5,62.5C 190.5,62.1667 190.5,61.8333 190.5,61.5C 193.448,61.2229 196.281,61.5562 199,62.5C 200.255,61.7894 201.421,60.956 202.5,60C 201.285,57.9045 200.451,58.0712 200,60.5C 199.5,59.3333 198.667,58.5 197.5,58C 200.003,57.9874 202.503,57.154 205,55.5C 206,55.8333 207,56.1667 208,56.5C 208.167,56.1667 208.333,55.8333 208.5,55.5C 206.955,54.5481 205.288,54.2148 203.5,54.5C 203.5,52.8333 203.5,51.1667 203.5,49.5C 205.766,49.1412 207.599,49.8078 209,51.5C 209.626,49.0087 210.459,49.0087 211.5,51.5C 212.541,49.0087 213.374,49.0087 214,51.5C 214.5,50.3333 215.333,49.5 216.5,49C 212.167,48.6667 207.833,48.3333 203.5,48C 201.753,45.9033 199.42,45.2366 196.5,46C 196.167,45 195.833,44 195.5,43C 194.207,42.51 192.873,42.3433 191.5,42.5C 191.906,44.1092 191.906,45.4425 191.5,46.5C 181.912,45.3269 172.745,45.3269 164,46.5C 162.933,45.8095 161.766,45.3095 160.5,45C 164.5,44.3333 164.5,43.6667 160.5,43C 164.084,41.9266 167.75,41.2599 171.5,41C 169.527,40.5045 167.527,40.3379 165.5,40.5C 182.443,37.2066 199.276,38.2066 216,43.5C 219.029,38.77 222.529,34.4366 226.5,30.5 Z"/></g>
<g><path style="opacity:1" fill="#50901d" d="M 190.5,61.5 C 190.5,61.8333 190.5,62.1667 190.5,62.5C 184.5,62.5 178.5,62.5 172.5,62.5C 169.518,62.9629 166.518,63.2962 163.5,63.5C 161.565,64.1495 159.565,64.4828 157.5,64.5C 160.203,63.037 163.203,62.2037 166.5,62C 174.493,61.5003 182.493,61.3336 190.5,61.5 Z"/></g>
<g><path style="opacity:1" fill="#8dea00" d="M 172.5,62.5 C 171.602,63.1577 170.602,63.8243 169.5,64.5C 171.323,66.1579 172.99,67.9912 174.5,70C 173.237,71.7051 172.903,73.3718 173.5,75C 172.833,80 172.167,85 171.5,90C 172.167,90.6667 172.833,91.3333 173.5,92C 173.5,94 173.5,96 173.5,98C 172.833,98.6667 172.167,99.3333 171.5,100C 173.116,105.421 171.449,110.087 166.5,114C 166.833,114.333 167.167,114.667 167.5,115C 164.814,116.589 163.147,118.422 162.5,120.5C 160.5,120.5 158.5,120.5 156.5,120.5C 156.249,118.83 155.582,117.33 154.5,116C 156.116,115.385 157.449,114.385 158.5,113C 158.581,110.24 158.247,107.407 157.5,104.5C 158.605,103.108 159.939,101.941 161.5,101C 161.167,100.667 160.833,100.333 160.5,100C 161.282,97.2595 161.782,94.4262 162,91.5C 162.5,91 163,90.5 163.5,90C 160.946,87.1646 160.946,84.3313 163.5,81.5C 163.182,80.3527 162.516,79.5194 161.5,79C 164.965,78.0664 165.298,76.5664 162.5,74.5C 163.601,72.3584 164.601,70.1917 165.5,68C 165.658,66.4131 164.991,64.9131 163.5,63.5C 166.518,63.2962 169.518,62.9629 172.5,62.5 Z"/></g>
<g><path style="opacity:1" fill="#73e801" d="M 172.5,62.5 C 178.5,62.5 184.5,62.5 190.5,62.5C 189.048,63.3019 187.382,63.8019 185.5,64C 186.672,64.4186 187.672,65.0853 188.5,66C 187.282,67.4382 186.615,69.1049 186.5,71C 186.544,73.6444 186.544,76.3111 186.5,79C 187.176,83.401 188.176,87.7343 189.5,92C 188.979,96.1873 188.979,100.521 189.5,105C 188.73,107.607 188.063,110.273 187.5,113C 187.645,113.772 187.978,114.439 188.5,115C 186.995,117.67 184.995,119.836 182.5,121.5C 185.447,122.08 188.114,123.08 190.5,124.5C 181.156,122.942 171.822,121.608 162.5,120.5C 163.147,118.422 164.814,116.589 167.5,115C 167.167,114.667 166.833,114.333 166.5,114C 171.449,110.087 173.116,105.421 171.5,100C 172.167,99.3333 172.833,98.6667 173.5,98C 173.5,96 173.5,94 173.5,92C 172.833,91.3333 172.167,90.6667 171.5,90C 172.167,85 172.833,80 173.5,75C 172.903,73.3718 173.237,71.7051 174.5,70C 172.99,67.9912 171.323,66.1579 169.5,64.5C 170.602,63.8243 171.602,63.1577 172.5,62.5 Z"/></g>
<g><path style="opacity:1" fill="#a0eb03" d="M 163.5,63.5 C 164.991,64.9131 165.658,66.4131 165.5,68C 164.601,70.1917 163.601,72.3584 162.5,74.5C 165.298,76.5664 164.965,78.0664 161.5,79C 162.516,79.5194 163.182,80.3527 163.5,81.5C 160.946,84.3313 160.946,87.1646 163.5,90C 163,90.5 162.5,91 162,91.5C 161.782,94.4262 161.282,97.2595 160.5,100C 160.833,100.333 161.167,100.667 161.5,101C 159.939,101.941 158.605,103.108 157.5,104.5C 158.247,107.407 158.581,110.24 158.5,113C 157.449,114.385 156.116,115.385 154.5,116C 155.582,117.33 156.249,118.83 156.5,120.5C 150.833,120.5 145.167,120.5 139.5,120.5C 140.651,117.517 142.651,115.35 145.5,114C 141.728,113.389 141.728,112.389 145.5,111C 144.833,109.667 144.167,108.333 143.5,107C 144.837,103.661 146.504,100.494 148.5,97.5C 147.332,96.0944 147.665,94.9277 149.5,94C 149.5,91 149.5,88 149.5,85C 150,84.5 150.5,84 151,83.5C 151.333,80.8333 151.667,78.1667 152,75.5C 152.654,76.6956 153.154,76.6956 153.5,75.5C 152.975,74.8076 152.308,74.3076 151.5,74C 152.935,71.7328 152.602,69.7328 150.5,68C 148.203,67.9822 145.869,68.1489 143.5,68.5C 147.915,66.5603 152.582,65.2269 157.5,64.5C 159.565,64.4828 161.565,64.1495 163.5,63.5 Z"/></g>
<g><path style="opacity:1" fill="#b0ec02" d="M 139.5,120.5 C 134.203,121.275 128.87,121.608 123.5,121.5C 122.391,120.71 121.058,120.21 119.5,120C 123.306,119.575 125.14,117.408 125,113.5C 127.621,113.704 130.455,113.704 133.5,113.5C 133.343,112.127 133.51,110.793 134,109.5C 134.333,109.833 134.667,110.167 135,110.5C 136.067,109.809 137.234,109.309 138.5,109C 137.5,108.667 136.5,108.333 135.5,108C 136.833,106.667 136.833,105.333 135.5,104C 136.69,101.884 138.023,99.8836 139.5,98C 138.833,97.3333 138.167,96.6667 137.5,96C 138.75,93.6189 140.417,91.6189 142.5,90C 141.403,85.9263 140.57,81.7597 140,77.5C 138.667,76.1667 137.333,76.1667 136,77.5C 135.383,76.5509 135.549,75.7175 136.5,75C 134.527,74.5045 132.527,74.3379 130.5,74.5C 134.405,71.7164 138.738,69.7164 143.5,68.5C 145.869,68.1489 148.203,67.9822 150.5,68C 152.602,69.7328 152.935,71.7328 151.5,74C 152.308,74.3076 152.975,74.8076 153.5,75.5C 153.154,76.6956 152.654,76.6956 152,75.5C 151.667,78.1667 151.333,80.8333 151,83.5C 150.5,84 150,84.5 149.5,85C 149.5,88 149.5,91 149.5,94C 147.665,94.9277 147.332,96.0944 148.5,97.5C 146.504,100.494 144.837,103.661 143.5,107C 144.167,108.333 144.833,109.667 145.5,111C 141.728,112.389 141.728,113.389 145.5,114C 142.651,115.35 140.651,117.517 139.5,120.5 Z"/></g>
<g><path style="opacity:1" fill="#08141d" d="M 287.5,75.5 C 287.095,77.6498 286.595,79.6498 286,81.5C 286.667,80.8333 287.333,80.1667 288,79.5C 289.956,79.7845 292.123,79.7845 294.5,79.5C 294.859,81.7659 294.192,83.5993 292.5,85C 293.167,85.3333 293.833,85.6667 294.5,86C 293.248,88.0413 292.581,90.3746 292.5,93C 292.667,95.1667 292.833,97.3333 293,99.5C 294.699,98.5939 296.533,98.2606 298.5,98.5C 298.677,105.134 299.177,105.134 300,98.5C 301.068,101.978 302.235,104.978 303.5,107.5C 304.244,106.009 304.91,104.509 305.5,103C 307.108,102.342 308.275,102.842 309,104.5C 309.159,102.657 309.659,101.991 310.5,102.5C 308.988,109.549 307.321,116.549 305.5,123.5C 308.205,131.672 310.539,140.006 312.5,148.5C 310.892,147.462 309.892,148.129 309.5,150.5C 302.927,151.638 302.927,152.472 309.5,153C 307.567,153.251 305.734,153.751 304,154.5C 304.768,151.504 304.601,148.837 303.5,146.5C 303.025,149.926 302.025,153.092 300.5,156C 300.957,156.414 301.291,156.914 301.5,157.5C 300.311,158.429 298.978,158.762 297.5,158.5C 297.657,159.873 297.49,161.207 297,162.5C 296.333,163.833 295.667,163.833 295,162.5C 294.751,165.177 293.751,167.51 292,169.5C 291.824,173.688 291.324,177.688 290.5,181.5C 290.666,173.493 290.5,165.493 290,157.5C 287.595,156.726 285.095,156.226 282.5,156C 262.986,139.651 244.653,122.151 227.5,103.5C 228.122,102.373 228.955,101.373 230,100.5C 231,101.833 232,101.833 233,100.5C 233.5,101 234,101.5 234.5,102C 233.399,104.292 234.232,105.792 237,106.5C 237.336,104.926 238.169,103.592 239.5,102.5C 242.461,103.183 242.795,104.016 240.5,105C 241.76,106.113 242.927,106.28 244,105.5C 245.119,106.552 245.619,107.719 245.5,109C 244.167,109.667 242.833,110.333 241.5,111C 242.833,111.667 242.833,112.333 241.5,113C 243,113.5 244.5,114 246,114.5C 247.412,113.077 248.579,113.244 249.5,115C 248.696,117.148 248.696,118.982 249.5,120.5C 250.298,118.922 250.798,117.256 251,115.5C 251.318,117.061 252.151,118.228 253.5,119C 252.833,119.333 252.167,119.667 251.5,120C 256.167,120.667 260.833,120.667 265.5,120C 267.744,119.95 269.411,119.117 270.5,117.5C 277.966,115.204 281.133,110.204 280,102.5C 276.352,96.0919 270.852,93.7585 263.5,95.5C 262.609,94.7387 261.942,93.7387 261.5,92.5C 264.306,91.8324 266.972,91.1657 269.5,90.5C 271.593,89.9553 273.593,89.122 275.5,88C 279.731,83.9379 283.731,79.7712 287.5,75.5 Z"/></g>
<g><path style="opacity:1" fill="#c5f003" d="M 130.5,74.5 C 132.527,74.3379 134.527,74.5045 136.5,75C 135.549,75.7175 135.383,76.5509 136,77.5C 137.333,76.1667 138.667,76.1667 140,77.5C 140.57,81.7597 141.403,85.9263 142.5,90C 140.417,91.6189 138.75,93.6189 137.5,96C 138.167,96.6667 138.833,97.3333 139.5,98C 138.023,99.8836 136.69,101.884 135.5,104C 136.833,105.333 136.833,106.667 135.5,108C 136.5,108.333 137.5,108.667 138.5,109C 137.234,109.309 136.067,109.809 135,110.5C 134.667,110.167 134.333,109.833 134,109.5C 133.51,110.793 133.343,112.127 133.5,113.5C 130.455,113.704 127.621,113.704 125,113.5C 125.14,117.408 123.306,119.575 119.5,120C 121.058,120.21 122.391,120.71 123.5,121.5C 111.997,121.502 106.497,127.168 107,138.5C 108.012,141.202 109.512,143.535 111.5,145.5C 108.994,146.815 107.161,148.815 106,151.5C 105.586,151.043 105.086,150.709 104.5,150.5C 102.885,151.154 101.218,151.654 99.5,152C 100.308,152.308 100.975,152.808 101.5,153.5C 98.7012,154.004 96.2012,155.004 94,156.5C 93.3333,153.833 92.6667,153.833 92,156.5C 90.6124,155.446 89.1124,155.28 87.5,156C 88.8333,156.667 88.8333,157.333 87.5,158C 85.0014,158.286 82.8348,158.119 81,157.5C 80.6667,158.167 80.3333,158.833 80,159.5C 78.3547,159.307 76.5213,159.14 74.5,159C 74.8333,158.667 75.1667,158.333 75.5,158C 74.5838,157.626 73.7504,157.126 73,156.5C 71.957,158.833 71.1237,161.166 70.5,163.5C 74.8059,123.213 94.8059,93.5465 130.5,74.5 Z"/></g>
<g><path style="opacity:1" fill="#59e802" d="M 190.5,62.5 C 193.059,62.1984 195.393,62.5318 197.5,63.5C 193.045,62.9733 192.379,64.4733 195.5,68C 194.715,70.0417 195.048,72.0417 196.5,74C 196.167,74.3333 195.833,74.6667 195.5,75C 196.282,77.7405 196.782,80.5738 197,83.5C 198.487,84.2529 198.654,85.0862 197.5,86C 198.74,94.3464 200.073,102.68 201.5,111C 201.331,114.348 199.997,117.515 197.5,120.5C 198.001,122.836 199.001,124.836 200.5,126.5C 197.061,126.212 193.728,125.546 190.5,124.5C 188.114,123.08 185.447,122.08 182.5,121.5C 184.995,119.836 186.995,117.67 188.5,115C 187.978,114.439 187.645,113.772 187.5,113C 188.063,110.273 188.73,107.607 189.5,105C 188.979,100.521 188.979,96.1873 189.5,92C 188.176,87.7343 187.176,83.401 186.5,79C 186.544,76.3111 186.544,73.6444 186.5,71C 186.615,69.1049 187.282,67.4382 188.5,66C 187.672,65.0853 186.672,64.4186 185.5,64C 187.382,63.8019 189.048,63.3019 190.5,62.5 Z"/></g>
<g><path style="opacity:1" fill="#f9f9f9" d="M 263.5,95.5 C 270.852,93.7585 276.352,96.0919 280,102.5C 281.133,110.204 277.966,115.204 270.5,117.5C 268.143,117.663 265.81,117.497 263.5,117C 255.584,109.632 255.584,102.465 263.5,95.5 Z"/></g>
<g><path style="opacity:1" fill="#07bd43" d="M 205.5,64.5 C 207.701,65.5664 210.035,66.233 212.5,66.5C 212.746,78.9793 216.412,90.3127 223.5,100.5C 223.579,101.93 223.246,103.264 222.5,104.5C 223.833,105.833 225.167,107.167 226.5,108.5C 225.873,109.417 225.539,110.417 225.5,111.5C 224.833,111.167 224.167,110.833 223.5,110.5C 214.004,101.488 208.171,90.4882 206,77.5C 205.501,73.1794 205.334,68.8461 205.5,64.5 Z"/></g>
<g><path style="opacity:1" fill="#35eb10" d="M 197.5,63.5 C 200.206,63.5751 202.873,63.9084 205.5,64.5C 205.334,68.8461 205.501,73.1794 206,77.5C 208.171,90.4882 214.004,101.488 223.5,110.5C 223.961,112.55 224.628,114.55 225.5,116.5C 224.833,117.167 224.167,117.833 223.5,118.5C 223.381,121.258 223.715,124.092 224.5,127C 223.833,128.333 222.833,129.333 221.5,130C 222.711,130.893 222.711,131.726 221.5,132.5C 219.929,131.691 218.262,131.357 216.5,131.5C 214.694,130.976 213.028,130.309 211.5,129.5C 209.485,128.076 207.152,127.41 204.5,127.5C 202.901,127.768 201.568,127.434 200.5,126.5C 199.001,124.836 198.001,122.836 197.5,120.5C 199.997,117.515 201.331,114.348 201.5,111C 200.073,102.68 198.74,94.3464 197.5,86C 198.654,85.0862 198.487,84.2529 197,83.5C 196.782,80.5738 196.282,77.7405 195.5,75C 195.833,74.6667 196.167,74.3333 196.5,74C 195.048,72.0417 194.715,70.0417 195.5,68C 192.379,64.4733 193.045,62.9733 197.5,63.5 Z"/></g>
<g><path style="opacity:1" fill="#10e42a" d="M 223.5,110.5 C 224.167,110.833 224.833,111.167 225.5,111.5C 234.167,121.167 242.833,130.833 251.5,140.5C 251.665,143.518 251.498,146.518 251,149.5C 250.329,148.748 249.496,148.414 248.5,148.5C 238.619,141.32 227.953,135.654 216.5,131.5C 218.262,131.357 219.929,131.691 221.5,132.5C 222.711,131.726 222.711,130.893 221.5,130C 222.833,129.333 223.833,128.333 224.5,127C 223.715,124.092 223.381,121.258 223.5,118.5C 224.167,117.833 224.833,117.167 225.5,116.5C 224.628,114.55 223.961,112.55 223.5,110.5 Z"/></g>
<g><path style="opacity:1" fill="#08151d" d="M 139.5,120.5 C 145.167,120.5 150.833,120.5 156.5,120.5C 158.5,120.5 160.5,120.5 162.5,120.5C 171.822,121.608 181.156,122.942 190.5,124.5C 193.728,125.546 197.061,126.212 200.5,126.5C 201.568,127.434 202.901,127.768 204.5,127.5C 206.515,128.924 208.848,129.59 211.5,129.5C 213.028,130.309 214.694,130.976 216.5,131.5C 227.953,135.654 238.619,141.32 248.5,148.5C 252.337,152.343 253.504,157.01 252,162.5C 249.371,167.564 245.204,169.564 239.5,168.5C 230.446,163.306 221.112,158.639 211.5,154.5C 205.893,152.631 200.226,150.964 194.5,149.5C 186.824,146.923 178.824,145.59 170.5,145.5C 150.899,144.532 131.232,144.532 111.5,145.5C 109.512,143.535 108.012,141.202 107,138.5C 106.497,127.168 111.997,121.502 123.5,121.5C 128.87,121.608 134.203,121.275 139.5,120.5 Z"/></g>
<g><path style="opacity:1" fill="#279516" d="M 204.5,127.5 C 207.152,127.41 209.485,128.076 211.5,129.5C 208.848,129.59 206.515,128.924 204.5,127.5 Z"/></g>
<g><path style="opacity:1" fill="#08b54d" d="M 223.5,100.5 C 224.833,101.5 226.167,102.5 227.5,103.5C 244.653,122.151 262.986,139.651 282.5,156C 285.095,156.226 287.595,156.726 290,157.5C 290.5,165.493 290.666,173.493 290.5,181.5C 290.737,182.791 290.404,183.791 289.5,184.5C 289.831,176.804 289.497,169.138 288.5,161.5C 284.235,162.439 279.902,162.772 275.5,162.5C 271.065,159.243 266.732,155.743 262.5,152C 259.668,147.335 256.001,143.502 251.5,140.5C 242.833,130.833 234.167,121.167 225.5,111.5C 225.539,110.417 225.873,109.417 226.5,108.5C 225.167,107.167 223.833,105.833 222.5,104.5C 223.246,103.264 223.579,101.93 223.5,100.5 Z"/></g>
<g><path style="opacity:1" fill="#a4e603" d="M 170.5,145.5 C 165.489,145.334 160.489,145.501 155.5,146C 150.55,150.798 145.217,154.965 139.5,158.5C 140.167,159.167 140.833,159.833 141.5,160.5C 149.99,161.167 158.324,161.833 166.5,162.5C 150.751,161.982 135.084,162.815 119.5,165C 113.665,167.659 110.998,172.159 111.5,178.5C 110.837,176.958 110.17,175.291 109.5,173.5C 104.761,176.934 100.927,180.601 98,184.5C 96.0924,181.668 95.259,182.001 95.5,185.5C 91.866,186.311 88.366,186.644 85,186.5C 83.133,183.786 80.633,182.119 77.5,181.5C 77.1667,183.5 76.8333,185.5 76.5,187.5C 75.1779,187.67 74.0113,187.337 73,186.5C 72.7216,187.416 72.2216,188.082 71.5,188.5C 70.5929,180.208 70.2596,171.875 70.5,163.5C 71.1237,161.166 71.957,158.833 73,156.5C 73.7504,157.126 74.5838,157.626 75.5,158C 75.1667,158.333 74.8333,158.667 74.5,159C 76.5213,159.14 78.3547,159.307 80,159.5C 80.3333,158.833 80.6667,158.167 81,157.5C 82.8348,158.119 85.0014,158.286 87.5,158C 88.8333,157.333 88.8333,156.667 87.5,156C 89.1124,155.28 90.6124,155.446 92,156.5C 92.6667,153.833 93.3333,153.833 94,156.5C 96.2012,155.004 98.7012,154.004 101.5,153.5C 100.975,152.808 100.308,152.308 99.5,152C 101.218,151.654 102.885,151.154 104.5,150.5C 105.086,150.709 105.586,151.043 106,151.5C 107.161,148.815 108.994,146.815 111.5,145.5C 131.232,144.532 150.899,144.532 170.5,145.5 Z"/></g>
<g><path style="opacity:1" fill="#76eb02" d="M 170.5,145.5 C 178.824,145.59 186.824,146.923 194.5,149.5C 193.5,149.5 192.5,149.5 191.5,149.5C 191.487,152.361 190.321,153.361 188,152.5C 186.786,154.049 185.286,155.215 183.5,156C 184.5,156.333 185.5,156.667 186.5,157C 184.32,159.012 181.986,160.845 179.5,162.5C 180.602,163.176 181.602,163.842 182.5,164.5C 177.219,163.444 171.886,162.777 166.5,162.5C 158.324,161.833 149.99,161.167 141.5,160.5C 140.833,159.833 140.167,159.167 139.5,158.5C 145.217,154.965 150.55,150.798 155.5,146C 160.489,145.501 165.489,145.334 170.5,145.5 Z"/></g>
<g><path style="opacity:1" fill="#02d245" d="M 251.5,140.5 C 256.001,143.502 259.668,147.335 262.5,152C 266.732,155.743 271.065,159.243 275.5,162.5C 276.389,163.947 277.389,165.614 278.5,167.5C 277.645,168.293 276.811,167.96 276,166.5C 275.51,167.793 275.343,169.127 275.5,170.5C 274.325,170.281 273.325,170.614 272.5,171.5C 273.616,171.402 274.616,171.902 275.5,173C 274.576,174.15 274.576,175.15 275.5,176C 274.833,177.333 273.833,178.333 272.5,179C 276.706,183.218 276.039,185.051 270.5,184.5C 270.318,186.591 270.652,188.591 271.5,190.5C 270.68,192.111 269.346,192.778 267.5,192.5C 267.5,193.5 267.5,194.5 267.5,195.5C 266.167,195.5 264.833,195.5 263.5,195.5C 264.502,198.11 264.335,200.776 263,203.5C 262.751,202.376 262.251,201.376 261.5,200.5C 261.678,201.956 260.844,203.289 259,204.5C 258.086,203.346 257.253,203.513 256.5,205C 256.833,205.333 257.167,205.667 257.5,206C 255.771,207.789 255.104,209.956 255.5,212.5C 251.551,212.693 251.551,213.193 255.5,214C 254.552,214.483 253.552,214.649 252.5,214.5C 252.657,215.873 252.49,217.207 252,218.5C 249.772,217.701 248.439,218.701 248,221.5C 247.667,220.5 247.333,219.5 247,218.5C 247.178,220.44 246.178,222.107 244,223.5C 243.586,223.043 243.086,222.709 242.5,222.5C 241.169,223.592 240.336,224.926 240,226.5C 239.333,225.167 238.667,225.167 238,226.5C 237.781,227.938 237.281,229.271 236.5,230.5C 235.325,229.145 234.325,229.312 233.5,231C 234.337,232.011 234.67,233.178 234.5,234.5C 233.178,234.67 232.011,234.337 231,233.5C 230.798,235.256 230.298,236.922 229.5,238.5C 228.188,237.54 226.854,237.706 225.5,239C 225.833,239.333 226.167,239.667 226.5,240C 225.234,240.309 224.067,240.809 223,241.5C 222.714,243.999 222.881,246.165 223.5,248C 221.741,248.98 220.074,249.647 218.5,250C 218.833,250.333 219.167,250.667 219.5,251C 218.751,252.734 218.251,254.567 218,256.5C 217.333,255.167 216.667,255.167 216,256.5C 215.333,255.167 214.667,253.833 214,252.5C 209.306,252.04 204.972,252.706 201,254.5C 200.105,251.534 200.605,248.867 202.5,246.5C 202.137,245.817 201.804,245.15 201.5,244.5C 202.367,237.919 201.034,231.919 197.5,226.5C 201.627,225.261 203.96,222.761 204.5,219C 206.095,219.617 207.428,219.284 208.5,218C 207.354,215.443 208.354,214.11 211.5,214C 211.5,212.333 211.5,210.667 211.5,209C 212.563,207.812 213.897,207.312 215.5,207.5C 215.34,205.801 215.506,204.134 216,202.5C 217.363,204.784 218.863,204.951 220.5,203C 219.244,202.583 218.577,201.75 218.5,200.5C 221.022,202.172 223.688,203.672 226.5,205C 235.524,204.964 239.024,200.464 237,191.5C 236.003,189.677 234.836,188.01 233.5,186.5C 235.056,185.709 236.39,185.376 237.5,185.5C 234.926,183.307 235.259,181.473 238.5,180C 238.62,178.287 238.453,176.454 238,174.5C 239.067,173.809 240.234,173.309 241.5,173C 241.043,172.586 240.709,172.086 240.5,171.5C 242.078,170.702 243.744,170.202 245.5,170C 243.292,169.809 241.292,169.309 239.5,168.5C 245.204,169.564 249.371,167.564 252,162.5C 253.504,157.01 252.337,152.343 248.5,148.5C 249.496,148.414 250.329,148.748 251,149.5C 251.498,146.518 251.665,143.518 251.5,140.5 Z"/></g>
<g><path style="opacity:1" fill="#38f014" d="M 194.5,149.5 C 200.226,150.964 205.893,152.631 211.5,154.5C 211.867,156.854 212.367,159.521 213,162.5C 214.961,157.873 216.794,157.373 218.5,161C 217.244,165.188 215.911,169.354 214.5,173.5C 212.929,172.691 211.262,172.357 209.5,172.5C 200.778,169.067 191.778,166.401 182.5,164.5C 181.602,163.842 180.602,163.176 179.5,162.5C 181.986,160.845 184.32,159.012 186.5,157C 185.5,156.667 184.5,156.333 183.5,156C 185.286,155.215 186.786,154.049 188,152.5C 190.321,153.361 191.487,152.361 191.5,149.5C 192.5,149.5 193.5,149.5 194.5,149.5 Z"/></g>
<g><path style="opacity:1" fill="#0ade32" d="M 211.5,154.5 C 221.112,158.639 230.446,163.306 239.5,168.5C 241.292,169.309 243.292,169.809 245.5,170C 243.744,170.202 242.078,170.702 240.5,171.5C 240.709,172.086 241.043,172.586 241.5,173C 240.234,173.309 239.067,173.809 238,174.5C 238.453,176.454 238.62,178.287 238.5,180C 235.259,181.473 234.926,183.307 237.5,185.5C 236.39,185.376 235.056,185.709 233.5,186.5C 225.76,181.3 217.76,176.633 209.5,172.5C 211.262,172.357 212.929,172.691 214.5,173.5C 215.911,169.354 217.244,165.188 218.5,161C 216.794,157.373 214.961,157.873 213,162.5C 212.367,159.521 211.867,156.854 211.5,154.5 Z"/></g>
<g><path style="opacity:1" fill="#02ca4c" d="M 289.5,184.5 C 287.675,200.31 282.675,214.977 274.5,228.5C 268.158,226.399 268.158,224.899 274.5,224C 274.165,222.133 273.665,219.966 273,217.5C 272.727,219.329 271.893,220.829 270.5,222C 270.833,222.333 271.167,222.667 271.5,223C 269.873,222.57 268.373,222.404 267,222.5C 264.266,223.362 264.099,224.195 266.5,225C 263.876,225.576 263.209,226.91 264.5,229C 261.099,228.734 259.433,230.234 259.5,233.5C 258.448,233.351 257.448,233.517 256.5,234C 256.619,235.281 256.119,236.448 255,237.5C 253.475,237.888 251.808,237.888 250,237.5C 248.513,238.253 248.346,239.086 249.5,240C 248.747,241.487 247.914,241.654 247,240.5C 246,242.167 245,243.833 244,245.5C 243.667,244.833 243.333,244.167 243,243.5C 240.86,245.64 238.694,247.806 236.5,250C 236.833,250.333 237.167,250.667 237.5,251C 234.182,251.879 230.848,252.713 227.5,253.5C 224.56,255.423 222.394,257.423 221,259.5C 219.21,260.285 217.543,260.285 216,259.5C 214.312,260.325 214.145,261.325 215.5,262.5C 213.433,263.134 211.6,264.134 210,265.5C 207,265.5 204,265.5 201,265.5C 200.085,264.672 199.419,263.672 199,262.5C 198.333,265.167 197.667,265.167 197,262.5C 196.667,262.833 196.333,263.167 196,263.5C 196.424,258.317 195.257,258.15 192.5,263C 191.552,263.483 190.552,263.649 189.5,263.5C 189.35,260.057 191.017,258.057 194.5,257.5C 195.63,256.378 196.297,255.044 196.5,253.5C 198.362,250.552 200.029,247.552 201.5,244.5C 201.804,245.15 202.137,245.817 202.5,246.5C 200.605,248.867 200.105,251.534 201,254.5C 204.972,252.706 209.306,252.04 214,252.5C 214.667,253.833 215.333,255.167 216,256.5C 216.667,255.167 217.333,255.167 218,256.5C 218.251,254.567 218.751,252.734 219.5,251C 219.167,250.667 218.833,250.333 218.5,250C 220.074,249.647 221.741,248.98 223.5,248C 222.881,246.165 222.714,243.999 223,241.5C 224.067,240.809 225.234,240.309 226.5,240C 226.167,239.667 225.833,239.333 225.5,239C 226.854,237.706 228.188,237.54 229.5,238.5C 230.298,236.922 230.798,235.256 231,233.5C 232.011,234.337 233.178,234.67 234.5,234.5C 234.67,233.178 234.337,232.011 233.5,231C 234.325,229.312 235.325,229.145 236.5,230.5C 237.281,229.271 237.781,227.938 238,226.5C 238.667,225.167 239.333,225.167 240,226.5C 240.336,224.926 241.169,223.592 242.5,222.5C 243.086,222.709 243.586,223.043 244,223.5C 246.178,222.107 247.178,220.44 247,218.5C 247.333,219.5 247.667,220.5 248,221.5C 248.439,218.701 249.772,217.701 252,218.5C 252.49,217.207 252.657,215.873 252.5,214.5C 253.552,214.649 254.552,214.483 255.5,214C 251.551,213.193 251.551,212.693 255.5,212.5C 255.104,209.956 255.771,207.789 257.5,206C 257.167,205.667 256.833,205.333 256.5,205C 257.253,203.513 258.086,203.346 259,204.5C 260.844,203.289 261.678,201.956 261.5,200.5C 262.251,201.376 262.751,202.376 263,203.5C 264.335,200.776 264.502,198.11 263.5,195.5C 264.833,195.5 266.167,195.5 267.5,195.5C 267.5,194.5 267.5,193.5 267.5,192.5C 269.346,192.778 270.68,192.111 271.5,190.5C 270.652,188.591 270.318,186.591 270.5,184.5C 276.039,185.051 276.706,183.218 272.5,179C 273.833,178.333 274.833,177.333 275.5,176C 274.576,175.15 274.576,174.15 275.5,173C 274.616,171.902 273.616,171.402 272.5,171.5C 273.325,170.614 274.325,170.281 275.5,170.5C 275.343,169.127 275.51,167.793 276,166.5C 276.811,167.96 277.645,168.293 278.5,167.5C 277.389,165.614 276.389,163.947 275.5,162.5C 279.902,162.772 284.235,162.439 288.5,161.5C 289.497,169.138 289.831,176.804 289.5,184.5 Z"/></g>
<g><path style="opacity:1" fill="#08151e" d="M 166.5,162.5 C 171.886,162.777 177.219,163.444 182.5,164.5C 191.778,166.401 200.778,169.067 209.5,172.5C 217.76,176.633 225.76,181.3 233.5,186.5C 234.836,188.01 236.003,189.677 237,191.5C 239.024,200.464 235.524,204.964 226.5,205C 223.688,203.672 221.022,202.172 218.5,200.5C 214.473,198.487 210.473,196.487 206.5,194.5C 202.541,192.027 198.207,190.36 193.5,189.5C 187.081,187.096 180.414,185.762 173.5,185.5C 162.5,184.167 151.5,184.167 140.5,185.5C 133.168,186.335 125.834,186.835 118.5,187C 114.881,185.215 112.548,182.382 111.5,178.5C 110.998,172.159 113.665,167.659 119.5,165C 135.084,162.815 150.751,161.982 166.5,162.5 Z"/></g>
<g><path style="opacity:1" fill="#83e602" d="M 111.5,178.5 C 112.548,182.382 114.881,185.215 118.5,187C 125.834,186.835 133.168,186.335 140.5,185.5C 136.381,186.738 132.047,187.571 127.5,188C 128.833,188.333 130.167,188.667 131.5,189C 129.101,189.731 126.935,190.898 125,192.5C 124.667,192.167 124.333,191.833 124,191.5C 119.127,195.359 113.96,198.859 108.5,202C 104.669,202.26 101.169,203.427 98,205.5C 96.4126,204.273 95.0793,204.606 94,206.5C 93.6667,206.167 93.3333,205.833 93,205.5C 90.1787,209.283 87.512,209.283 85,205.5C 80.5263,205.804 78.3596,208.137 78.5,212.5C 74.4773,205.11 72.144,197.11 71.5,188.5C 72.2216,188.082 72.7216,187.416 73,186.5C 74.0113,187.337 75.1779,187.67 76.5,187.5C 76.8333,185.5 77.1667,183.5 77.5,181.5C 80.633,182.119 83.133,183.786 85,186.5C 88.366,186.644 91.866,186.311 95.5,185.5C 95.259,182.001 96.0924,181.668 98,184.5C 100.927,180.601 104.761,176.934 109.5,173.5C 110.17,175.291 110.837,176.958 111.5,178.5 Z"/></g>
<g><path style="opacity:1" fill="#03df35" d="M 206.5,194.5 C 210.473,196.487 214.473,198.487 218.5,200.5C 218.577,201.75 219.244,202.583 220.5,203C 218.863,204.951 217.363,204.784 216,202.5C 215.506,204.134 215.34,205.801 215.5,207.5C 213.897,207.312 212.563,207.812 211.5,209C 211.5,210.667 211.5,212.333 211.5,214C 208.354,214.11 207.354,215.443 208.5,218C 207.428,219.284 206.095,219.617 204.5,219C 203.96,222.761 201.627,225.261 197.5,226.5C 191.418,220.462 184.085,217.795 175.5,218.5C 178.305,217.681 181.305,217.181 184.5,217C 183.692,216.692 183.025,216.192 182.5,215.5C 183.687,214.481 184.687,213.314 185.5,212C 185.167,211.667 184.833,211.333 184.5,211C 186.105,209.64 187.605,208.14 189,206.5C 189.741,207.641 190.575,207.641 191.5,206.5C 193.053,204.735 193.386,202.902 192.5,201C 194.126,201.195 195.793,201.195 197.5,201C 196.044,200.577 195.544,199.744 196,198.5C 198.823,199.367 201.823,199.701 205,199.5C 206.269,198.095 206.769,196.429 206.5,194.5 Z"/></g>
<g><path style="opacity:1" fill="#60eb01" d="M 173.5,185.5 C 169.743,185.071 166.243,185.737 163,187.5C 161.991,186.342 160.658,185.675 159,185.5C 155.25,186.729 151.417,187.563 147.5,188C 148.328,188.915 149.328,189.581 150.5,190C 147.169,194.983 142.503,197.983 136.5,199C 133.27,202.451 129.27,204.617 124.5,205.5C 123.614,206.325 123.281,207.325 123.5,208.5C 118.366,208.484 114.199,210.484 111,214.5C 110.667,214.167 110.333,213.833 110,213.5C 107.404,215.02 104.571,215.853 101.5,216C 95.1385,218.178 89.1385,220.678 83.5,223.5C 81.5954,220.696 79.9287,217.696 78.5,214.5C 78.5,213.833 78.5,213.167 78.5,212.5C 78.3596,208.137 80.5263,205.804 85,205.5C 87.512,209.283 90.1787,209.283 93,205.5C 93.3333,205.833 93.6667,206.167 94,206.5C 95.0793,204.606 96.4126,204.273 98,205.5C 101.169,203.427 104.669,202.26 108.5,202C 113.96,198.859 119.127,195.359 124,191.5C 124.333,191.833 124.667,192.167 125,192.5C 126.935,190.898 129.101,189.731 131.5,189C 130.167,188.667 128.833,188.333 127.5,188C 132.047,187.571 136.381,186.738 140.5,185.5C 151.5,184.167 162.5,184.167 173.5,185.5 Z"/></g>
<g><path style="opacity:1" fill="#2fed17" d="M 173.5,185.5 C 180.414,185.762 187.081,187.096 193.5,189.5C 192.402,190.397 192.402,191.23 193.5,192C 191.513,193.319 190.346,195.152 190,197.5C 189.586,197.043 189.086,196.709 188.5,196.5C 186.035,197.922 183.369,198.922 180.5,199.5C 179.066,200.23 177.9,201.23 177,202.5C 175.23,201.724 173.397,201.89 171.5,203C 172.308,203.308 172.975,203.808 173.5,204.5C 172.229,204.126 171.062,204.792 170,206.5C 169.333,205.833 168.667,205.167 168,204.5C 167.63,206.664 166.796,208.664 165.5,210.5C 164.914,210.291 164.414,209.957 164,209.5C 162.601,210.227 161.101,210.727 159.5,211C 160.167,211.333 160.833,211.667 161.5,212C 159.667,212.5 158.5,213.667 158,215.5C 157.692,214.692 157.192,214.025 156.5,213.5C 155.757,214.908 154.923,216.241 154,217.5C 153.586,217.043 153.086,216.709 152.5,216.5C 151.938,219.229 150.272,220.729 147.5,221C 147.835,222.164 147.835,223.497 147.5,225C 144.092,226.996 140.425,228.163 136.5,228.5C 136.762,229.978 136.429,231.311 135.5,232.5C 133.117,231.538 132.117,232.538 132.5,235.5C 130.516,235.383 128.85,236.05 127.5,237.5C 126.914,237.291 126.414,236.957 126,236.5C 125.492,238.904 124.325,239.571 122.5,238.5C 120.21,239.742 118.377,241.408 117,243.5C 113.515,242.378 110.015,242.544 106.5,244C 105.809,245.067 105.309,246.234 105,247.5C 104.612,246.572 103.945,245.905 103,245.5C 101.862,245.989 100.695,246.322 99.5,246.5C 92.9372,239.714 87.6039,232.048 83.5,223.5C 89.1385,220.678 95.1385,218.178 101.5,216C 104.571,215.853 107.404,215.02 110,213.5C 110.333,213.833 110.667,214.167 111,214.5C 114.199,210.484 118.366,208.484 123.5,208.5C 123.281,207.325 123.614,206.325 124.5,205.5C 129.27,204.617 133.27,202.451 136.5,199C 142.503,197.983 147.169,194.983 150.5,190C 149.328,189.581 148.328,188.915 147.5,188C 151.417,187.563 155.25,186.729 159,185.5C 160.658,185.675 161.991,186.342 163,187.5C 166.243,185.737 169.743,185.071 173.5,185.5 Z"/></g>
<g><path style="opacity:1" fill="#0ee929" d="M 193.5,189.5 C 198.207,190.36 202.541,192.027 206.5,194.5C 206.769,196.429 206.269,198.095 205,199.5C 201.823,199.701 198.823,199.367 196,198.5C 195.544,199.744 196.044,200.577 197.5,201C 195.793,201.195 194.126,201.195 192.5,201C 193.386,202.902 193.053,204.735 191.5,206.5C 190.575,207.641 189.741,207.641 189,206.5C 187.605,208.14 186.105,209.64 184.5,211C 184.833,211.333 185.167,211.667 185.5,212C 184.687,213.314 183.687,214.481 182.5,215.5C 183.025,216.192 183.692,216.692 184.5,217C 181.305,217.181 178.305,217.681 175.5,218.5C 174.167,218.833 172.833,219.167 171.5,219.5C 170.85,219.196 170.183,218.863 169.5,218.5C 165.509,220.161 161.509,221.828 157.5,223.5C 156.354,224.719 155.354,226.052 154.5,227.5C 153.833,227.167 153.167,226.833 152.5,226.5C 151.15,227.95 149.484,228.617 147.5,228.5C 147.5,229.5 147.5,230.5 147.5,231.5C 145.323,231.586 143.323,232.253 141.5,233.5C 140.269,234.651 140.269,235.817 141.5,237C 140.24,238.113 139.073,238.28 138,237.5C 137.758,239.138 136.925,240.638 135.5,242C 133.481,241.057 131.481,240.557 129.5,240.5C 128.614,241.325 128.281,242.325 128.5,243.5C 125.171,245.319 121.504,246.653 117.5,247.5C 117.468,249.489 116.635,251.489 115,253.5C 114.517,252.552 114.351,251.552 114.5,250.5C 113.167,250.5 111.833,250.5 110.5,250.5C 110.574,254.161 109.574,254.828 107.5,252.5C 107.977,251.522 108.643,250.689 109.5,250C 107.172,250.804 104.839,250.637 102.5,249.5C 101.167,248.833 100.167,247.833 99.5,246.5C 100.695,246.322 101.862,245.989 103,245.5C 103.945,245.905 104.612,246.572 105,247.5C 105.309,246.234 105.809,245.067 106.5,244C 110.015,242.544 113.515,242.378 117,243.5C 118.377,241.408 120.21,239.742 122.5,238.5C 124.325,239.571 125.492,238.904 126,236.5C 126.414,236.957 126.914,237.291 127.5,237.5C 128.85,236.05 130.516,235.383 132.5,235.5C 132.117,232.538 133.117,231.538 135.5,232.5C 136.429,231.311 136.762,229.978 136.5,228.5C 140.425,228.163 144.092,226.996 147.5,225C 147.835,223.497 147.835,222.164 147.5,221C 150.272,220.729 151.938,219.229 152.5,216.5C 153.086,216.709 153.586,217.043 154,217.5C 154.923,216.241 155.757,214.908 156.5,213.5C 157.192,214.025 157.692,214.692 158,215.5C 158.5,213.667 159.667,212.5 161.5,212C 160.833,211.667 160.167,211.333 159.5,211C 161.101,210.727 162.601,210.227 164,209.5C 164.414,209.957 164.914,210.291 165.5,210.5C 166.796,208.664 167.63,206.664 168,204.5C 168.667,205.167 169.333,205.833 170,206.5C 171.062,204.792 172.229,204.126 173.5,204.5C 172.975,203.808 172.308,203.308 171.5,203C 173.397,201.89 175.23,201.724 177,202.5C 177.9,201.23 179.066,200.23 180.5,199.5C 183.369,198.922 186.035,197.922 188.5,196.5C 189.086,196.709 189.586,197.043 190,197.5C 190.346,195.152 191.513,193.319 193.5,192C 192.402,191.23 192.402,190.397 193.5,189.5 Z"/></g>
<g><path style="opacity:1" fill="#05e131" d="M 171.5,219.5 C 161.649,224.866 157.316,233.2 158.5,244.5C 159.057,246.949 159.057,249.282 158.5,251.5C 157.575,250.359 156.741,250.359 156,251.5C 153.56,249.241 151.226,249.574 149,252.5C 147.249,251.826 145.583,251.493 144,251.5C 143.667,252.833 143.333,254.167 143,255.5C 141.059,251.446 140.225,251.78 140.5,256.5C 138.143,256.337 135.81,256.503 133.5,257C 134.5,257.333 135.5,257.667 136.5,258C 134.939,258.941 133.605,260.108 132.5,261.5C 132.92,263.326 132.92,265.326 132.5,267.5C 130.784,267.629 129.117,267.962 127.5,268.5C 117.901,263.863 109.567,257.53 102.5,249.5C 104.839,250.637 107.172,250.804 109.5,250C 108.643,250.689 107.977,251.522 107.5,252.5C 109.574,254.828 110.574,254.161 110.5,250.5C 111.833,250.5 113.167,250.5 114.5,250.5C 114.351,251.552 114.517,252.552 115,253.5C 116.635,251.489 117.468,249.489 117.5,247.5C 121.504,246.653 125.171,245.319 128.5,243.5C 128.281,242.325 128.614,241.325 129.5,240.5C 131.481,240.557 133.481,241.057 135.5,242C 136.925,240.638 137.758,239.138 138,237.5C 139.073,238.28 140.24,238.113 141.5,237C 140.269,235.817 140.269,234.651 141.5,233.5C 143.323,232.253 145.323,231.586 147.5,231.5C 147.5,230.5 147.5,229.5 147.5,228.5C 149.484,228.617 151.15,227.95 152.5,226.5C 153.167,226.833 153.833,227.167 154.5,227.5C 155.354,226.052 156.354,224.719 157.5,223.5C 161.509,221.828 165.509,220.161 169.5,218.5C 170.183,218.863 170.85,219.196 171.5,219.5 Z"/></g>
<g><path style="opacity:1" fill="#08151e" d="M 175.5,218.5 C 184.085,217.795 191.418,220.462 197.5,226.5C 201.034,231.919 202.367,237.919 201.5,244.5C 200.029,247.552 198.362,250.552 196.5,253.5C 188.201,260.641 178.868,262.307 168.5,258.5C 166.539,256.037 164.372,253.703 162,251.5C 161.102,248.931 159.935,246.598 158.5,244.5C 157.316,233.2 161.649,224.866 171.5,219.5C 172.833,219.167 174.167,218.833 175.5,218.5 Z"/></g>
<g><path style="opacity:1" fill="#07151f" d="M 312.5,148.5 C 319.541,215.597 293.208,264.43 233.5,295C 202.512,306.687 171.178,308.187 139.5,299.5C 139.5,298.5 139.5,297.5 139.5,296.5C 142.545,296.704 145.379,296.704 148,296.5C 148.499,292.848 148.665,289.182 148.5,285.5C 151.482,285.827 154.315,285.827 157,285.5C 157.333,287.833 157.667,290.167 158,292.5C 158.1,289.563 158.933,286.896 160.5,284.5C 156.686,281.427 152.519,281.094 148,283.5C 147.616,281.803 147.782,280.137 148.5,278.5C 185.373,287.359 219.04,280.525 249.5,258C 259.509,249.498 267.843,239.665 274.5,228.5C 282.675,214.977 287.675,200.31 289.5,184.5C 290.404,183.791 290.737,182.791 290.5,181.5C 291.324,177.688 291.824,173.688 292,169.5C 293.751,167.51 294.751,165.177 295,162.5C 295.667,163.833 296.333,163.833 297,162.5C 297.49,161.207 297.657,159.873 297.5,158.5C 298.978,158.762 300.311,158.429 301.5,157.5C 301.291,156.914 300.957,156.414 300.5,156C 302.025,153.092 303.025,149.926 303.5,146.5C 304.601,148.837 304.768,151.504 304,154.5C 305.734,153.751 307.567,153.251 309.5,153C 302.927,152.472 302.927,151.638 309.5,150.5C 309.892,148.129 310.892,147.462 312.5,148.5 Z"/></g>
<g><path style="opacity:1" fill="#07141f" d="M 78.5,214.5 C 79.9287,217.696 81.5954,220.696 83.5,223.5C 87.6039,232.048 92.9372,239.714 99.5,246.5C 100.167,247.833 101.167,248.833 102.5,249.5C 109.567,257.53 117.901,263.863 127.5,268.5C 133.673,273.231 140.673,276.231 148.5,277.5C 148.5,277.833 148.5,278.167 148.5,278.5C 147.782,280.137 147.616,281.803 148,283.5C 152.519,281.094 156.686,281.427 160.5,284.5C 158.933,286.896 158.1,289.563 158,292.5C 157.667,290.167 157.333,287.833 157,285.5C 154.315,285.827 151.482,285.827 148.5,285.5C 148.665,289.182 148.499,292.848 148,296.5C 145.379,296.704 142.545,296.704 139.5,296.5C 139.5,297.5 139.5,298.5 139.5,299.5C 91.7577,282.114 61.7577,249.114 49.5,200.5C 50.9529,196.9 52.4529,197.233 54,201.5C 54.3333,201.167 54.6667,200.833 55,200.5C 55.49,201.793 55.6567,203.127 55.5,204.5C 56.8333,204.5 58.1667,204.5 59.5,204.5C 59.2537,202.22 59.2537,200.22 59.5,198.5C 60.1189,201.032 61.1189,203.365 62.5,205.5C 61.1886,206.258 60.6886,207.258 61,208.5C 63.9532,207.249 66.9532,207.249 70,208.5C 70.9454,208.095 71.6121,207.428 72,206.5C 72.6869,208.568 72.5202,210.568 71.5,212.5C 72.1667,212.833 72.8333,213.167 73.5,213.5C 71.7241,214.315 71.0574,215.482 71.5,217C 72.5,217.667 73.5,217.667 74.5,217C 74.1667,216.667 73.8333,216.333 73.5,216C 75.1545,215.392 76.8211,214.892 78.5,214.5 Z"/></g>
<g><path style="opacity:1" fill="#05c548" d="M 274.5,228.5 C 267.843,239.665 259.509,249.498 249.5,258C 219.04,280.525 185.373,287.359 148.5,278.5C 148.5,278.167 148.5,277.833 148.5,277.5C 148.917,276.876 149.584,276.543 150.5,276.5C 152.51,277.362 154.51,277.862 156.5,278C 156.833,277.667 157.167,277.333 157.5,277C 156.328,276.581 155.328,275.915 154.5,275C 154.566,272.534 154.566,270.034 154.5,267.5C 158.832,266.612 162.832,264.945 166.5,262.5C 167.362,261.234 168.029,259.901 168.5,258.5C 178.868,262.307 188.201,260.641 196.5,253.5C 196.297,255.044 195.63,256.378 194.5,257.5C 191.017,258.057 189.35,260.057 189.5,263.5C 190.552,263.649 191.552,263.483 192.5,263C 195.257,258.15 196.424,258.317 196,263.5C 196.333,263.167 196.667,262.833 197,262.5C 197.667,265.167 198.333,265.167 199,262.5C 199.419,263.672 200.085,264.672 201,265.5C 204,265.5 207,265.5 210,265.5C 211.6,264.134 213.433,263.134 215.5,262.5C 214.145,261.325 214.312,260.325 216,259.5C 217.543,260.285 219.21,260.285 221,259.5C 222.394,257.423 224.56,255.423 227.5,253.5C 230.848,252.713 234.182,251.879 237.5,251C 237.167,250.667 236.833,250.333 236.5,250C 238.694,247.806 240.86,245.64 243,243.5C 243.333,244.167 243.667,244.833 244,245.5C 245,243.833 246,242.167 247,240.5C 247.914,241.654 248.747,241.487 249.5,240C 248.346,239.086 248.513,238.253 250,237.5C 251.808,237.888 253.475,237.888 255,237.5C 256.119,236.448 256.619,235.281 256.5,234C 257.448,233.517 258.448,233.351 259.5,233.5C 259.433,230.234 261.099,228.734 264.5,229C 263.209,226.91 263.876,225.576 266.5,225C 264.099,224.195 264.266,223.362 267,222.5C 268.373,222.404 269.873,222.57 271.5,223C 271.167,222.667 270.833,222.333 270.5,222C 271.893,220.829 272.727,219.329 273,217.5C 273.665,219.966 274.165,222.133 274.5,224C 268.158,224.899 268.158,226.399 274.5,228.5 Z"/></g>
<g><path style="opacity:1" fill="#04cf41" d="M 158.5,244.5 C 159.935,246.598 161.102,248.931 162,251.5C 164.372,253.703 166.539,256.037 168.5,258.5C 168.029,259.901 167.362,261.234 166.5,262.5C 162.832,264.945 158.832,266.612 154.5,267.5C 154.566,270.034 154.566,272.534 154.5,275C 155.328,275.915 156.328,276.581 157.5,277C 157.167,277.333 156.833,277.667 156.5,278C 154.51,277.862 152.51,277.362 150.5,276.5C 149.584,276.543 148.917,276.876 148.5,277.5C 140.673,276.231 133.673,273.231 127.5,268.5C 129.117,267.962 130.784,267.629 132.5,267.5C 132.92,265.326 132.92,263.326 132.5,261.5C 133.605,260.108 134.939,258.941 136.5,258C 135.5,257.667 134.5,257.333 133.5,257C 135.81,256.503 138.143,256.337 140.5,256.5C 140.225,251.78 141.059,251.446 143,255.5C 143.333,254.167 143.667,252.833 144,251.5C 145.583,251.493 147.249,251.826 149,252.5C 151.226,249.574 153.56,249.241 156,251.5C 156.741,250.359 157.575,250.359 158.5,251.5C 159.057,249.282 159.057,246.949 158.5,244.5 Z"/></g>
<g><path style="opacity:1" fill="#091620" d="M 99.5,315.5 C 153.501,315.333 207.501,315.5 261.5,316C 267.901,318.823 269.068,323.323 265,329.5C 263.758,330.872 262.258,331.872 260.5,332.5C 212.294,331.576 164.461,331.576 117,332.5C 110.198,331.816 103.364,331.149 96.5,330.5C 93.693,327.722 92.8596,324.389 94,320.5C 95.1065,317.887 96.9399,316.22 99.5,315.5 Z"/></g>
</svg>
